<svg xmlns="http://www.w3.org/2000/svg" width="1200" height="630" viewBox="0 0 1200 630">
<defs>
<linearGradient id="bg" x1="0" y1="0" x2="0" y2="1"><stop offset="0" stop-color="#12071f"/><stop offset="1" stop-color="#1d0d33"/></linearGradient>
<radialGradient id="g1" cx="1100" cy="30" r="520" gradientUnits="userSpaceOnUse"><stop offset="0" stop-color="#8b5cf6" stop-opacity=".6"/><stop offset="1" stop-color="#8b5cf6" stop-opacity="0"/></radialGradient>
<radialGradient id="g2" cx="100" cy="640" r="420" gradientUnits="userSpaceOnUse"><stop offset="0" stop-color="#c084fc" stop-opacity=".35"/><stop offset="1" stop-color="#c084fc" stop-opacity="0"/></radialGradient>
<radialGradient id="pl" cx="35%" cy="30%" r="75%"><stop offset="0" stop-color="#c4a6ff"/><stop offset=".55" stop-color="#7c3aed"/><stop offset="1" stop-color="#2e1065"/></radialGradient>
</defs>
<rect width="1200" height="630" fill="url(#bg)"/><rect width="1200" height="630" fill="url(#g1)"/><rect width="1200" height="630" fill="url(#g2)"/>
<circle cx="663" cy="154" r="1.4" fill="#fff" opacity="0.76"/><circle cx="98" cy="74" r="0.8" fill="#fff" opacity="0.58"/><circle cx="1193" cy="59" r="0.8" fill="#fff" opacity="0.37"/><circle cx="176" cy="444" r="1.4" fill="#fff" opacity="0.39"/><circle cx="492" cy="92" r="1.4" fill="#fff" opacity="0.38"/><circle cx="1158" cy="126" r="0.8" fill="#fff" opacity="0.75"/><circle cx="1193" cy="63" r="1.4" fill="#fff" opacity="0.38"/><circle cx="452" cy="47" r="0.8" fill="#fff" opacity="0.53"/><circle cx="858" cy="147" r="0.8" fill="#fff" opacity="0.71"/><circle cx="631" cy="573" r="0.8" fill="#fff" opacity="0.41"/><circle cx="1191" cy="584" r="0.8" fill="#fff" opacity="0.58"/><circle cx="199" cy="560" r="0.8" fill="#fff" opacity="0.71"/><circle cx="122" cy="210" r="1.4" fill="#fff" opacity="0.78"/><circle cx="1088" cy="437" r="1" fill="#fff" opacity="0.64"/><circle cx="1199" cy="464" r="1" fill="#fff" opacity="0.54"/><circle cx="508" cy="184" r="0.8" fill="#fff" opacity="0.4"/><circle cx="1176" cy="307" r="1.4" fill="#fff" opacity="0.56"/><circle cx="919" cy="294" r="0.8" fill="#fff" opacity="0.42"/><circle cx="1048" cy="428" r="0.8" fill="#fff" opacity="0.83"/><circle cx="700" cy="155" r="1.4" fill="#fff" opacity="0.61"/><circle cx="80" cy="79" r="1" fill="#fff" opacity="0.56"/><circle cx="717" cy="608" r="1.4" fill="#fff" opacity="0.72"/><circle cx="934" cy="70" r="0.8" fill="#fff" opacity="0.52"/><circle cx="970" cy="66" r="0.8" fill="#fff" opacity="0.81"/><circle cx="634" cy="591" r="1.4" fill="#fff" opacity="0.53"/><circle cx="790" cy="355" r="0.8" fill="#fff" opacity="0.64"/><circle cx="727" cy="172" r="0.8" fill="#fff" opacity="0.66"/><circle cx="120" cy="223" r="1" fill="#fff" opacity="0.43"/><circle cx="507" cy="407" r="1.4" fill="#fff" opacity="0.9"/><circle cx="1016" cy="82" r="0.8" fill="#fff" opacity="0.63"/><circle cx="822" cy="562" r="1" fill="#fff" opacity="0.43"/><circle cx="881" cy="563" r="1" fill="#fff" opacity="0.8"/><circle cx="850" cy="367" r="1.4" fill="#fff" opacity="0.49"/><circle cx="309" cy="84" r="0.8" fill="#fff" opacity="0.44"/><circle cx="475" cy="238" r="0.8" fill="#fff" opacity="0.66"/><circle cx="373" cy="269" r="1" fill="#fff" opacity="0.35"/><circle cx="298" cy="429" r="1" fill="#fff" opacity="0.74"/><circle cx="1159" cy="326" r="0.8" fill="#fff" opacity="0.79"/><circle cx="1055" cy="55" r="1.4" fill="#fff" opacity="0.9"/><circle cx="1145" cy="401" r="1.4" fill="#fff" opacity="0.6"/><circle cx="807" cy="106" r="1.4" fill="#fff" opacity="0.75"/><circle cx="820" cy="63" r="0.8" fill="#fff" opacity="0.39"/><circle cx="427" cy="451" r="0.8" fill="#fff" opacity="0.42"/><circle cx="696" cy="615" r="0.8" fill="#fff" opacity="0.41"/><circle cx="0" cy="580" r="0.8" fill="#fff" opacity="0.69"/><circle cx="207" cy="372" r="0.8" fill="#fff" opacity="0.39"/><circle cx="425" cy="628" r="1.4" fill="#fff" opacity="0.44"/><circle cx="516" cy="355" r="1" fill="#fff" opacity="0.65"/><circle cx="251" cy="118" r="1.4" fill="#fff" opacity="0.64"/><circle cx="983" cy="495" r="1" fill="#fff" opacity="0.4"/><circle cx="295" cy="104" r="1" fill="#fff" opacity="0.82"/><circle cx="542" cy="490" r="0.8" fill="#fff" opacity="0.68"/><circle cx="47" cy="210" r="1" fill="#fff" opacity="0.44"/><circle cx="1112" cy="27" r="1" fill="#fff" opacity="0.76"/><circle cx="186" cy="267" r="1" fill="#fff" opacity="0.45"/><circle cx="728" cy="228" r="1" fill="#fff" opacity="0.75"/><circle cx="456" cy="627" r="0.8" fill="#fff" opacity="0.86"/><circle cx="490" cy="410" r="0.8" fill="#fff" opacity="0.47"/><circle cx="1060" cy="504" r="1" fill="#fff" opacity="0.81"/><circle cx="59" cy="28" r="1" fill="#fff" opacity="0.65"/><circle cx="530" cy="198" r="1" fill="#fff" opacity="0.63"/><circle cx="715" cy="373" r="0.8" fill="#fff" opacity="0.49"/><circle cx="209" cy="232" r="1.4" fill="#fff" opacity="0.47"/><circle cx="691" cy="209" r="1.4" fill="#fff" opacity="0.74"/><circle cx="3" cy="490" r="1" fill="#fff" opacity="0.86"/><circle cx="173" cy="122" r="1.4" fill="#fff" opacity="0.85"/><circle cx="408" cy="489" r="0.8" fill="#fff" opacity="0.62"/><circle cx="680" cy="88" r="1.4" fill="#fff" opacity="0.64"/><circle cx="822" cy="86" r="0.8" fill="#fff" opacity="0.45"/><circle cx="260" cy="28" r="0.8" fill="#fff" opacity="0.72"/><circle cx="953" cy="149" r="1.4" fill="#fff" opacity="0.77"/><circle cx="717" cy="159" r="0.8" fill="#fff" opacity="0.36"/><circle cx="29" cy="105" r="0.8" fill="#fff" opacity="0.62"/><circle cx="398" cy="216" r="0.8" fill="#fff" opacity="0.51"/><circle cx="435" cy="299" r="0.8" fill="#fff" opacity="0.83"/><circle cx="667" cy="265" r="1.4" fill="#fff" opacity="0.88"/><circle cx="268" cy="62" r="1" fill="#fff" opacity="0.64"/><circle cx="1194" cy="529" r="1.4" fill="#fff" opacity="0.87"/><circle cx="1027" cy="133" r="0.8" fill="#fff" opacity="0.68"/><circle cx="1045" cy="19" r="1.4" fill="#fff" opacity="0.84"/><circle cx="375" cy="623" r="0.8" fill="#fff" opacity="0.84"/><circle cx="306" cy="176" r="0.8" fill="#fff" opacity="0.65"/><circle cx="246" cy="569" r="0.8" fill="#fff" opacity="0.55"/><circle cx="1061" cy="543" r="1.4" fill="#fff" opacity="0.85"/><circle cx="217" cy="573" r="0.8" fill="#fff" opacity="0.5"/><circle cx="391" cy="283" r="0.8" fill="#fff" opacity="0.84"/><circle cx="200" cy="519" r="1.4" fill="#fff" opacity="0.7"/><circle cx="57" cy="64" r="1.4" fill="#fff" opacity="0.55"/><circle cx="1035" cy="620" r="0.8" fill="#fff" opacity="0.79"/><circle cx="567" cy="463" r="1.4" fill="#fff" opacity="0.67"/><circle cx="507" cy="535" r="1" fill="#fff" opacity="0.7"/><circle cx="414" cy="458" r="0.8" fill="#fff" opacity="0.61"/><circle cx="249" cy="401" r="1.4" fill="#fff" opacity="0.55"/><circle cx="148" cy="246" r="1.4" fill="#fff" opacity="0.39"/><circle cx="435" cy="310" r="0.8" fill="#fff" opacity="0.84"/><circle cx="316" cy="374" r="0.8" fill="#fff" opacity="0.51"/><circle cx="281" cy="478" r="0.8" fill="#fff" opacity="0.82"/><circle cx="192" cy="407" r="1.4" fill="#fff" opacity="0.45"/><circle cx="458" cy="165" r="1.4" fill="#fff" opacity="0.67"/><circle cx="827" cy="347" r="1.4" fill="#fff" opacity="0.47"/><circle cx="730" cy="326" r="0.8" fill="#fff" opacity="0.81"/><circle cx="749" cy="19" r="1" fill="#fff" opacity="0.7"/><circle cx="939" cy="451" r="0.8" fill="#fff" opacity="0.59"/><circle cx="678" cy="529" r="1" fill="#fff" opacity="0.67"/><circle cx="131" cy="115" r="0.8" fill="#fff" opacity="0.41"/><circle cx="172" cy="271" r="1" fill="#fff" opacity="0.37"/><circle cx="371" cy="276" r="0.8" fill="#fff" opacity="0.87"/><circle cx="864" cy="264" r="1.4" fill="#fff" opacity="0.44"/><circle cx="1098" cy="527" r="1.4" fill="#fff" opacity="0.79"/><circle cx="669" cy="91" r="1" fill="#fff" opacity="0.38"/>
<g transform="rotate(-18 960 315)">
<path d="M750 315 A210 55 0 0 1 1170 315" fill="none" stroke="#f5edff" stroke-opacity=".75" stroke-width="6"/>
</g>
<circle cx="960" cy="315" r="120" fill="url(#pl)"/>
<g transform="rotate(-18 960 315)">
<path d="M1170 315 A210 55 0 0 1 750 315" fill="none" stroke="#f5edff" stroke-opacity=".75" stroke-width="6"/>
</g>
<g font-family="Poppins, 'DejaVu Sans', Arial, sans-serif">
<text x="80" y="230" font-size="84" font-weight="700" fill="#f5edff">Espacio Éter</text>
<text x="84" y="300" font-size="40" font-weight="600" fill="#c4a6ff">Tu clase de prueba</text>
<text x="84" y="352" font-size="32" fill="#e9ddff">Pole · Acro · Flexi · Danza</text>
<text x="84" y="482" font-size="30" fill="#cbbbe6">refugio para entrenar sin prejuicios</text>
<text x="84" y="530" font-size="30" fill="#cbbbe6">San Martín 39, Ciudadela</text>
</g>
</svg>
